<svg width="1290" height="686" viewBox="0 0 1290 686" fill="none" xmlns="http://www.w3.org/2000/svg">
<path d="M430.038 379.301C445.3 379.301 457.664 375.047 467.323 366.538C476.983 358.03 481.812 346.62 481.812 332.31V241.229H455.152V330.183C455.152 344.3 447.232 353.195 430.038 353.195C412.844 353.195 404.923 344.3 404.923 330.183V241.229H378.456V332.31C378.456 346.62 383.286 358.03 392.946 366.538C402.605 375.047 414.969 379.301 430.038 379.301Z" fill="#FEF3C7" fill-opacity="0.75"/>
<path d="M532.49 241.229H505.83V376.594H584.071V351.068H532.49V241.229Z" fill="#FEF3C7" fill-opacity="0.75"/>
<path d="M575.399 241.229V266.755H611.718V376.594H638.378V266.755H674.891V241.229H575.399Z" fill="#FEF3C7" fill-opacity="0.75"/>
<path d="M766.663 241.229L737.298 297.696L707.933 241.229H677.796L723.968 323.802V376.594H750.435V323.802L796.8 241.229H766.663Z" fill="#FEF3C7" fill-opacity="0.75"/>
<path d="M380.582 468.836L322.625 386.263H302.34V521.628H329V438.862L386.957 521.628H407.242V386.263H380.582V468.836Z" fill="#FEF3C7" fill-opacity="0.75"/>
<path d="M548.24 521.628L500.716 386.263H467.681L420.35 521.628H449.135L457.249 497.262H511.148L519.262 521.628H548.24ZM484.295 417.01L502.841 472.317H465.749L484.295 417.01Z" fill="#FEF3C7" fill-opacity="0.75"/>
<path d="M621.377 448.918V472.51H662.333C657.504 488.56 643.594 498.229 622.923 498.229C609.013 498.229 597.808 494.168 589.308 485.853C581.001 477.538 576.751 466.902 576.751 454.139C576.751 441.183 580.808 430.547 589.115 422.231C597.422 413.723 608.047 409.468 620.991 409.468C637.026 409.468 650.935 417.204 657.311 428.226L680.107 415.076C668.515 395.932 646.492 383.556 621.184 383.556C601.093 383.556 584.285 390.324 570.569 404.054C557.046 417.784 550.284 434.414 550.284 454.139C550.284 473.67 557.046 490.301 570.762 504.031C584.478 517.567 601.865 524.335 622.73 524.335C642.242 524.335 658.276 518.341 670.641 506.351C683.005 494.362 689.187 478.698 689.187 459.36V448.918H621.377Z" fill="#FEF3C7" fill-opacity="0.75"/>
<path d="M734.809 465.742H786.004V440.602H734.809V411.789H790.834V386.263H708.149V521.628H791.8V496.102H734.809V465.742Z" fill="#FEF3C7" fill-opacity="0.75"/>
<path d="M915.494 386.263L876.856 450.271L838.025 386.263H810.592V521.628H837.252V434.028L875.31 496.682H878.401L916.459 433.834V521.628H942.926V386.263H915.494Z" fill="#FEF3C7" fill-opacity="0.75"/>
<path d="M994.784 465.742H1045.98V440.602H994.784V411.789H1050.81V386.263H968.124V521.628H1051.77V496.102H994.784V465.742Z" fill="#FEF3C7" fill-opacity="0.75"/>
<path d="M1148.81 468.836L1090.85 386.263H1070.57V521.628H1097.23V438.862L1155.18 521.628H1175.47V386.263H1148.81V468.836Z" fill="#FEF3C7" fill-opacity="0.75"/>
<path d="M1190.51 386.263V411.789H1226.83V521.628H1253.49V411.789H1290V386.263H1190.51Z" fill="#FEF3C7" fill-opacity="0.75"/>
<path d="M340.591 531.297V556.823H376.911V666.662H403.571V556.823H440.084V531.297H340.591Z" fill="#FEF3C7" fill-opacity="0.75"/>
<path d="M481.627 610.776H532.822V585.636H481.627V556.823H537.651V531.297H454.967V666.662H538.617V641.136H481.627V610.776Z" fill="#FEF3C7" fill-opacity="0.75"/>
<path d="M662.311 531.297L623.673 595.305L584.842 531.297H557.409V666.662H584.069V579.062L622.128 641.716H625.219L663.277 578.868V666.662H689.744V531.297H662.311Z" fill="#FEF3C7" fill-opacity="0.75"/>
<path d="M102.969 241.229H22.2166V376.594H48.8766V324.382H101.424V298.856H48.8766V266.755H102.969V241.229Z" fill="white"/>
<path d="M233.479 376.594L185.954 241.229H152.919L105.588 376.594H134.373L142.487 352.228H196.387L204.501 376.594H233.479ZM169.533 271.976L188.08 327.283H150.987L169.533 271.976Z" fill="#FEF3C7"/>
<path d="M305.843 379.301C330.571 379.301 352.401 366.925 363.993 347.394L341.003 334.051C334.628 345.847 321.298 353.195 305.843 353.195C292.706 353.195 282.081 349.134 273.967 340.819C266.046 332.504 261.989 321.868 261.989 308.912C261.989 295.762 266.046 285.126 273.967 276.811C282.081 268.495 292.706 264.434 305.843 264.434C321.298 264.434 334.242 271.589 341.003 283.772L363.993 270.429C352.401 250.898 330.378 238.522 305.843 238.522C285.558 238.522 268.751 245.29 255.421 258.826C242.091 272.17 235.522 288.994 235.522 308.912C235.522 328.83 242.091 345.46 255.421 358.997C268.751 372.533 285.558 379.301 305.843 379.301Z" fill="#FEF3C7"/>
<path d="M127.118 386.263L88.4803 450.271L49.6493 386.263H22.2166V521.628H48.8766V434.028L86.9347 496.682H90.0258L128.084 433.834V521.628H154.551V386.263H127.118Z" fill="white"/>
<path d="M290.832 521.628L243.307 386.263H210.272L162.941 521.628H191.726L199.84 497.262H253.739L261.853 521.628H290.832ZM226.886 417.01L245.432 472.317H208.34L226.886 417.01Z" fill="#FEF3C7"/>
<path d="M68.3889 669.369C82.8781 669.369 94.6626 665.695 103.742 658.347C112.822 650.998 117.459 641.136 117.459 628.567C117.459 620.831 115.334 614.063 112.436 609.422C109.924 604.781 103.742 599.947 99.6855 597.433C97.7536 596.079 94.8558 594.725 91.1852 593.372C87.5146 591.825 84.6168 590.664 82.4917 590.084L73.2186 586.99C63.1728 583.896 56.4112 580.995 52.7406 578.481C49.2633 575.774 47.5246 572.293 47.5246 568.039C47.5246 560.111 54.2862 554.502 65.2979 554.502C77.0824 554.502 85.7759 560.304 91.1852 571.907L113.595 558.95C104.322 539.806 87.1282 528.59 65.2979 528.59C53.127 528.59 42.5017 532.264 33.8082 539.612C25.1147 546.767 20.8645 556.63 20.8645 568.813C20.8645 581.189 25.3079 590.471 33.615 596.659C42.1153 602.654 49.4564 605.554 61.6273 609.229C72.6391 612.323 80.1734 615.223 84.4236 617.931C88.6737 620.445 90.7988 624.119 90.7988 628.953C90.7988 637.269 84.0372 643.263 69.1617 643.263C53.7066 643.263 43.2744 636.302 38.0583 622.572L15.2621 635.915C22.7964 656.606 41.5357 669.369 68.3889 669.369Z" fill="white"/>
<path d="M206.907 531.297L177.542 587.764L148.177 531.297H118.04L164.212 613.87V666.662H190.679V613.87L237.044 531.297H206.907Z" fill="#FEF3C7"/>
<path d="M288.443 669.369C302.932 669.369 314.716 665.695 323.796 658.347C332.876 650.998 337.513 641.136 337.513 628.567C337.513 620.831 335.388 614.063 332.49 609.422C329.978 604.781 323.796 599.947 319.739 597.433C317.807 596.079 314.91 594.725 311.239 593.372C307.568 591.825 304.671 590.664 302.546 590.084L293.272 586.99C283.227 583.896 276.465 580.995 272.794 578.481C269.317 575.774 267.578 572.293 267.578 568.039C267.578 560.111 274.34 554.502 285.352 554.502C297.136 554.502 305.83 560.304 311.239 571.907L333.649 558.95C324.376 539.806 307.182 528.59 285.352 528.59C273.181 528.59 262.556 532.264 253.862 539.612C245.169 546.767 240.918 556.63 240.918 568.813C240.918 581.189 245.362 590.471 253.669 596.659C262.169 602.654 269.51 605.554 281.681 609.229C292.693 612.323 300.227 615.223 304.477 617.931C308.728 620.445 310.853 624.119 310.853 628.953C310.853 637.269 304.091 643.263 289.216 643.263C273.76 643.263 263.328 636.302 258.112 622.572L235.316 635.915C242.85 656.606 261.59 669.369 288.443 669.369Z" fill="#FEF3C7"/>
<path d="M637.522 231.56H627.863V57.5192H9.65943V676.331H637.522V686H0V46.9438H637.522V231.56Z" fill="white"/>
<path d="M12.1017 28.5124V0.38456H23.3528C25.42 0.38456 27.1443 0.691293 28.5255 1.30476C29.9067 1.91822 30.9449 2.76975 31.6401 3.85933C32.3353 4.93976 32.6829 6.18501 32.6829 7.59506C32.6829 8.6938 32.4634 9.65978 32.0243 10.493C31.5852 11.3171 30.9815 11.9946 30.2132 12.5257C29.4539 13.0476 28.585 13.4184 27.6062 13.6381V13.9128C28.6764 13.9586 29.678 14.2608 30.6111 14.8193C31.5532 15.3778 32.317 16.1607 32.9024 17.1679C33.4878 18.1659 33.7806 19.3562 33.7806 20.7388C33.7806 22.2312 33.4101 23.5635 32.6692 24.7354C31.9374 25.8983 30.8535 26.8185 29.4174 27.496C27.9812 28.1736 26.2113 28.5124 24.1074 28.5124H12.1017ZM18.0428 23.6504H22.8863C24.5419 23.6504 25.7493 23.3345 26.5085 22.7028C27.2678 22.0618 27.6474 21.2103 27.6474 20.1482C27.6474 19.3699 27.4599 18.6832 27.0848 18.0881C26.7098 17.4929 26.1747 17.0259 25.4795 16.6872C24.7934 16.3484 23.9748 16.179 23.0235 16.179H18.0428V23.6504ZM18.0428 12.1548H22.4472C23.2613 12.1548 23.9839 12.0129 24.6151 11.7291C25.2554 11.4361 25.7585 11.0241 26.1244 10.493C26.4994 9.96193 26.6869 9.32558 26.6869 8.58393C26.6869 7.56759 26.3256 6.74811 25.603 6.12549C24.8895 5.50287 23.8742 5.19156 22.557 5.19156H18.0428V12.1548Z" fill="white"/>
<path d="M51.0516 19.5302V7.41651H56.8966V28.5124H51.2848V24.6805H51.0653C50.5897 25.9166 49.7984 26.91 48.6916 27.6608C47.594 28.4117 46.2539 28.7871 44.6714 28.7871C43.2628 28.7871 42.0233 28.4666 40.9531 27.8257C39.8829 27.1847 39.0459 26.2737 38.4422 25.0925C37.8476 23.9114 37.5458 22.4968 37.5366 20.8486V7.41651H43.3817V19.8048C43.3908 21.0501 43.7247 22.0344 44.3833 22.7577C45.0419 23.481 45.9246 23.8427 47.0314 23.8427C47.7357 23.8427 48.3943 23.6825 49.0072 23.362C49.6201 23.0324 50.114 22.5471 50.489 21.9062C50.8732 21.2652 51.0607 20.4732 51.0516 19.5302Z" fill="white"/>
<path d="M67.417 0.38456V28.5124H61.572V0.38456H67.417Z" fill="white"/>
<path d="M87.4528 8.47405C87.3431 7.36615 86.872 6.50547 86.0396 5.89201C85.2072 5.27854 84.0775 4.97181 82.6505 4.97181C81.6809 4.97181 80.8623 5.10915 80.1945 5.38384C79.5268 5.64937 79.0145 6.0202 78.6578 6.49632C78.3102 6.97244 78.1364 7.51265 78.1364 8.11696C78.1181 8.62055 78.2233 9.06005 78.452 9.43545C78.6898 9.81086 79.0145 10.1359 79.4262 10.4106C79.8378 10.6761 80.3134 10.9096 80.8531 11.111C81.3928 11.3033 81.9691 11.4681 82.5819 11.6055L85.1066 12.2098C86.3323 12.4845 87.4574 12.8507 88.4819 13.3085C89.5064 13.7663 90.3936 14.3294 91.1437 14.9978C91.8938 15.6662 92.4746 16.4537 92.8862 17.3601C93.307 18.2666 93.522 19.3058 93.5311 20.4778C93.522 22.1992 93.0829 23.6916 92.2139 24.9552C91.3541 26.2096 90.1101 27.1847 88.4819 27.8806C86.8628 28.5673 84.9099 28.9107 82.6231 28.9107C80.3546 28.9107 78.3788 28.5627 76.6957 27.8669C75.0218 27.171 73.7137 26.1409 72.7716 24.7766C71.8386 23.4032 71.3492 21.7047 71.3035 19.6812H77.0525C77.1165 20.6243 77.3863 21.4117 77.862 22.0435C78.3468 22.6661 78.9917 23.1377 79.7966 23.4582C80.6107 23.7695 81.53 23.9251 82.5545 23.9251C83.5607 23.9251 84.4343 23.7786 85.1752 23.4856C85.9252 23.1926 86.5061 22.7852 86.9177 22.2633C87.3293 21.7414 87.5351 21.1416 87.5351 20.4641C87.5351 19.8323 87.3476 19.3012 86.9726 18.8709C86.6067 18.4406 86.067 18.0743 85.3535 17.7722C84.6492 17.47 83.7848 17.1953 82.7603 16.9481L79.7006 16.179C77.3315 15.6021 75.4609 14.7003 74.0888 13.4733C72.7167 12.2464 72.0352 10.5937 72.0444 8.51526C72.0352 6.8122 72.488 5.32432 73.4027 4.05162C74.3266 2.7789 75.5935 1.78546 77.2034 1.07127C78.8133 0.357092 80.6427 0 82.6917 0C84.7773 0 86.5976 0.357092 88.1526 1.07127C89.7167 1.78546 90.9333 2.7789 91.8023 4.05162C92.6713 5.32432 93.1195 6.79847 93.1469 8.47405H87.4528Z" fill="white"/>
<path d="M114.884 0.38456H120.825V18.6512C120.825 20.7021 120.336 22.4968 119.357 24.035C118.387 25.5732 117.029 26.7727 115.282 27.6334C113.535 28.4849 111.5 28.9107 109.176 28.9107C106.844 28.9107 104.804 28.4849 103.057 27.6334C101.31 26.7727 99.9513 25.5732 98.9817 24.035C98.0121 22.4968 97.5273 20.7021 97.5273 18.6512V0.38456H103.468V18.143C103.468 19.2143 103.702 20.1665 104.168 20.9997C104.644 21.8329 105.312 22.4876 106.171 22.9637C107.031 23.4398 108.033 23.6779 109.176 23.6779C110.329 23.6779 111.33 23.4398 112.181 22.9637C113.041 22.4876 113.704 21.8329 114.171 20.9997C114.646 20.1665 114.884 19.2143 114.884 18.143V0.38456Z" fill="white"/>
<path d="M138.734 12.1274V16.7696H125.919V12.1274H138.734Z" fill="white"/>
<path d="M168.618 10.232H162.608C162.499 9.45377 162.275 8.76247 161.936 8.15816C161.598 7.5447 161.163 7.0228 160.633 6.59246C160.102 6.16212 159.489 5.83249 158.794 5.60359C158.108 5.37468 157.362 5.26023 156.558 5.26023C155.103 5.26023 153.836 5.6219 152.757 6.34524C151.677 7.05942 150.841 8.10323 150.246 9.47666C149.651 10.8409 149.354 12.4982 149.354 14.4485C149.354 16.4537 149.651 18.1384 150.246 19.5027C150.85 20.867 151.691 21.897 152.771 22.5929C153.85 23.2888 155.099 23.6367 156.516 23.6367C157.312 23.6367 158.049 23.5314 158.725 23.3208C159.411 23.1102 160.02 22.8035 160.55 22.4006C161.081 21.9886 161.52 21.4896 161.867 20.9036C162.224 20.3176 162.471 19.6492 162.608 18.8984L168.618 18.9258C168.463 20.2169 168.074 21.4621 167.452 22.6616C166.839 23.8519 166.011 24.9186 164.968 25.8617C163.935 26.7956 162.7 27.5372 161.264 28.0866C159.837 28.6268 158.222 28.8969 156.42 28.8969C153.914 28.8969 151.673 28.3292 149.697 27.1939C147.73 26.0585 146.175 24.415 145.032 22.2633C143.898 20.1116 143.331 17.5066 143.331 14.4485C143.331 11.3811 143.907 8.77163 145.06 6.61993C146.212 4.46822 147.776 2.82926 149.752 1.70305C151.728 0.567684 153.951 0 156.42 0C158.049 0 159.558 0.228905 160.948 0.686714C162.348 1.14452 163.587 1.81293 164.666 2.69192C165.746 3.56176 166.624 4.62845 167.301 5.89201C167.987 7.15556 168.426 8.60224 168.618 10.232Z" fill="white"/>
<path d="M178.819 0.38456V28.5124H172.878V0.38456H178.819Z" fill="white"/>
<path d="M208.501 10.232H202.491C202.381 9.45377 202.157 8.76247 201.819 8.15816C201.481 7.5447 201.046 7.0228 200.515 6.59246C199.985 6.16212 199.372 5.83249 198.677 5.60359C197.991 5.37468 197.245 5.26023 196.44 5.26023C194.986 5.26023 193.719 5.6219 192.64 6.34524C191.56 7.05942 190.723 8.10323 190.129 9.47666C189.534 10.8409 189.237 12.4982 189.237 14.4485C189.237 16.4537 189.534 18.1384 190.129 19.5027C190.733 20.867 191.574 21.897 192.653 22.5929C193.733 23.2888 194.981 23.6367 196.399 23.6367C197.195 23.6367 197.931 23.5314 198.608 23.3208C199.294 23.1102 199.903 22.8035 200.433 22.4006C200.964 21.9886 201.403 21.4896 201.75 20.9036C202.107 20.3176 202.354 19.6492 202.491 18.8984L208.501 18.9258C208.345 20.2169 207.957 21.4621 207.335 22.6616C206.722 23.8519 205.894 24.9186 204.851 25.8617C203.818 26.7956 202.583 27.5372 201.147 28.0866C199.72 28.6268 198.105 28.8969 196.303 28.8969C193.797 28.8969 191.556 28.3292 189.58 27.1939C187.613 26.0585 186.058 24.415 184.915 22.2633C183.781 20.1116 183.214 17.5066 183.214 14.4485C183.214 11.3811 183.79 8.77163 184.942 6.61993C186.095 4.46822 187.659 2.82926 189.635 1.70305C191.611 0.567684 193.833 0 196.303 0C197.931 0 199.441 0.228905 200.831 0.686714C202.231 1.14452 203.47 1.81293 204.549 2.69192C205.629 3.56176 206.507 4.62845 207.184 5.89201C207.87 7.15556 208.309 8.60224 208.501 10.232Z" fill="white"/>
<path d="M211.691 5.2877V0.38456H234.769V5.2877H226.166V28.5124H220.294V5.2877H211.691Z" fill="white"/>
</svg>
