<?xml version="1.0" encoding="utf-8"?>
<!-- Generator: Adobe Illustrator 24.1.1, SVG Export Plug-In . SVG Version: 6.00 Build 0)  -->
<svg version="1.1" id="Layer_1" xmlns="http://www.w3.org/2000/svg" xmlns:xlink="http://www.w3.org/1999/xlink" x="0px" y="0px"
	 viewBox="0 0 512 512" style="enable-background:new 0 0 512 512;" xml:space="preserve">
<g>
	<path d="M256,139c33.2,0,61,11.5,83.4,34.4c22.4,22.9,33.6,50.5,33.6,82.7c0,33.2-11.2,61-33.6,83.4C317,361.8,289.2,373,256,373
		c-32.2,0-59.7-11.2-82.7-33.6C150.4,317,139,289.2,139,256c0-32.2,11.5-59.7,34.4-82.7S223.8,139,256,139 M256,332.1
		c21.5,0,39.3-7.3,53.4-21.9s21.2-32.7,21.2-54.1c0-20.5-7.1-38-21.2-52.7s-31.9-21.9-53.4-21.9c-20.5,0-38,7.3-52.7,21.9
		s-21.9,32.2-21.9,52.7c0,21.5,7.3,39.5,21.9,54.1S235.5,332.1,256,332.1 M36.6,226.7c9.8,0,18.3,2.9,25.6,8.8
		c7.3,5.9,11,12.7,11,20.5c0,19.5-12.2,29.3-36.6,29.3S0,275.5,0,256c0-7.8,3.7-14.6,11-20.5C18.3,229.7,26.8,226.7,36.6,226.7
		 M435.9,77.5c13.7,13.7,11.7,29.3-5.9,46.8c-6.8,6.8-14.9,10.7-24.1,11.7c-9.3,1-16.3-1.5-21.2-7.3c-5.9-5.9-8.3-13.4-7.3-22.7
		s4.9-17.3,11.7-24.1C406.7,65.3,422.3,63.9,435.9,77.5 M475.4,226.7c9.8,0,18.3,2.9,25.6,8.8c7.3,5.9,11,12.7,11,20.5
		c0,19.5-12.2,29.3-36.6,29.3c-23.4,0-35.1-9.8-35.1-29.3c0-7.8,3.4-14.6,10.2-20.5C457.4,229.7,465.7,226.7,475.4,226.7 M256,438.9
		c7.8,0,14.6,3.7,20.5,11c5.9,7.3,8.8,15.8,8.8,25.6c0,9.8-2.9,18.3-8.8,25.6c-5.9,7.3-12.7,11-20.5,11c-7.8,0-14.6-3.7-20.5-11
		c-5.9-7.3-8.8-15.8-8.8-25.6c0-9.8,2.9-18.3,8.8-25.6C241.4,442.5,248.2,438.9,256,438.9 M81.9,393.5c17.6-17.6,33.2-19.5,46.8-5.9
		s11.7,29.3-5.9,46.8c-6.8,6.8-14.9,10.7-24.1,11.7c-9.3,1-16.3-1-21.2-5.9C62.9,426.7,64.4,411.1,81.9,393.5 M74.6,79
		c13.7-13.7,29.3-11.7,46.8,5.9c6.8,6.8,10.7,14.9,11.7,24.1c1,9.3-1,16.3-5.9,21.2c-14.6,13.7-30.2,12.2-46.8-4.4
		C62.9,108.3,61,92.6,74.6,79 M390.6,433c-16.6-17.6-18-33.2-4.4-46.8c13.7-13.7,29.3-11.7,46.8,5.9c6.8,6.8,10.7,14.9,11.7,24.1
		c1,9.3-1.5,16.3-7.3,21.2C422.8,451,407.2,449.6,390.6,433 M256,73.1c-7.8,0-14.6-3.7-20.5-11c-5.9-7.3-8.8-15.8-8.8-25.6
		s2.9-18.3,8.8-25.6c5.9-7.3,12.7-11,20.5-11c7.8,0,14.6,3.7,20.5,11c5.9,7.3,8.8,15.8,8.8,25.6s-2.9,18.3-8.8,25.6
		C270.6,69.5,263.8,73.1,256,73.1"/>
</g>
</svg>
